<svg width="26" height="26" viewBox="0 0 26 26" fill="none" xmlns="http://www.w3.org/2000/svg">
<g clip-path="url(#clip0_40_2)">
<rect x="4.23902" y="4.64032" width="0.847804" height="0.847804" fill="#4D6BFE"/>
<rect x="5.08683" y="4.64032" width="0.847804" height="0.847804" fill="#4D6BFE"/>
<rect x="5.93462" y="4.64032" width="0.847804" height="0.847804" fill="#4D6BFE"/>
<rect x="6.78246" y="4.64032" width="0.847804" height="0.847804" fill="#4D6BFE"/>
<rect x="7.63025" y="4.64032" width="0.847804" height="0.847804" fill="#4D6BFE"/>
<rect x="8.47804" y="4.64032" width="0.847804" height="0.847804" fill="#4D6BFE"/>
<rect x="9.32585" y="4.64032" width="0.847804" height="0.847804" fill="#4D6BFE"/>
<rect x="10.1736" y="4.64032" width="0.847804" height="0.847804" fill="#4D6BFE"/>
<rect x="10.1736" y="3.79248" width="0.847804" height="0.847804" fill="#4D6BFE"/>
<rect x="9.32585" y="3.79248" width="0.847804" height="0.847804" fill="#4D6BFE"/>
<rect x="9.32585" y="5.48816" width="0.847804" height="0.847804" fill="#4D6BFE"/>
<rect x="10.1736" y="5.48816" width="0.847804" height="0.847804" fill="#4D6BFE"/>
<rect x="8.47804" y="5.48816" width="0.847804" height="0.847804" fill="#4D6BFE"/>
<rect x="7.63025" y="5.48816" width="0.847804" height="0.847804" fill="#4D6BFE"/>
<rect x="6.78246" y="5.48816" width="0.847804" height="0.847804" fill="#4D6BFE"/>
<rect x="5.93462" y="5.48816" width="0.847804" height="0.847804" fill="#4D6BFE"/>
<rect x="5.08683" y="5.48816" width="0.847804" height="0.847804" fill="#4D6BFE"/>
<rect x="4.23902" y="5.48816" width="0.847804" height="0.847804" fill="#4D6BFE"/>
<rect x="10.1736" y="5.48816" width="0.847804" height="0.847804" fill="#4D6BFE"/>
<rect x="11.0215" y="5.48816" width="0.847804" height="0.847804" fill="#4D6BFE"/>
<rect x="11.0215" y="6.336" width="0.847804" height="0.847804" fill="#4D6BFE"/>
<rect x="11.0215" y="7.18372" width="0.847804" height="0.847804" fill="#4D6BFE"/>
<rect x="11.0215" y="8.03156" width="0.847804" height="0.847804" fill="#4D6BFE"/>
<rect x="11.0215" y="8.87933" width="0.847804" height="0.847804" fill="#4D6BFE"/>
<rect x="11.0215" y="9.72717" width="0.847804" height="0.847804" fill="#4D6BFE"/>
<rect x="11.8693" y="8.87933" width="0.847804" height="0.847804" fill="#4D6BFE"/>
<rect x="11.8693" y="8.03156" width="0.847804" height="0.847804" fill="#4D6BFE"/>
<rect x="11.8693" y="7.18372" width="0.847804" height="0.847804" fill="#4D6BFE"/>
<rect x="12.7171" y="8.03156" width="0.847804" height="0.847804" fill="#4D6BFE"/>
<rect x="15.2605" y="9.72717" width="0.847804" height="0.847804" fill="#4D6BFE"/>
<rect x="14.4127" y="9.72717" width="0.847804" height="0.847804" fill="#4D6BFE"/>
<rect x="13.5649" y="9.72717" width="0.847804" height="0.847804" fill="#4D6BFE"/>
<rect x="12.7171" y="9.72717" width="0.847804" height="0.847804" fill="#4D6BFE"/>
<rect x="12.7171" y="10.5749" width="0.847804" height="0.847804" fill="#4D6BFE"/>
<rect x="13.5649" y="10.5749" width="0.847804" height="0.847804" fill="#4D6BFE"/>
<rect x="14.4127" y="10.5749" width="0.847804" height="0.847804" fill="#4D6BFE"/>
<rect x="15.2605" y="10.5749" width="0.847804" height="0.847804" fill="#4D6BFE"/>
<rect x="13.5649" y="11.4227" width="0.847804" height="0.847804" fill="#4D6BFE"/>
<rect x="14.4127" y="11.4227" width="0.847804" height="0.847804" fill="#4D6BFE"/>
<rect x="15.2605" y="11.4227" width="0.847804" height="0.847804" fill="#4D6BFE"/>
<rect x="14.4127" y="12.2706" width="0.847804" height="0.847804" fill="#4D6BFE"/>
<rect x="14.4127" y="13.1184" width="0.847804" height="0.847804" fill="#4D6BFE"/>
<rect x="13.5649" y="13.1184" width="0.847804" height="0.847804" fill="#4D6BFE"/>
<rect x="12.7171" y="13.1184" width="0.847804" height="0.847804" fill="#4D6BFE"/>
<rect x="11.8693" y="12.2706" width="0.847804" height="0.847804" fill="#4D6BFE"/>
<rect x="11.0215" y="11.4227" width="0.847804" height="0.847804" fill="#4D6BFE"/>
<rect x="10.1736" y="10.5749" width="0.847804" height="0.847804" fill="#4D6BFE"/>
<rect x="9.32585" y="10.5749" width="0.847804" height="0.847804" fill="#4D6BFE"/>
<rect x="8.47804" y="10.5749" width="0.847804" height="0.847804" fill="#4D6BFE"/>
<rect x="9.32585" y="11.4227" width="0.847804" height="0.847804" fill="#4D6BFE"/>
<rect x="10.1736" y="11.4227" width="0.847804" height="0.847804" fill="#4D6BFE"/>
<rect x="10.1736" y="12.2706" width="0.847804" height="0.847804" fill="#4D6BFE"/>
<rect x="11.0215" y="13.1184" width="0.847804" height="0.847804" fill="#4D6BFE"/>
<rect x="11.8693" y="13.1184" width="0.847804" height="0.847804" fill="#4D6BFE"/>
<rect x="11.8693" y="13.9662" width="0.847804" height="0.847804" fill="#4D6BFE"/>
<rect x="12.7171" y="13.9662" width="0.847804" height="0.847804" fill="#4D6BFE"/>
<rect x="13.5649" y="13.9662" width="0.847804" height="0.847804" fill="#4D6BFE"/>
<rect x="11.8693" y="14.814" width="0.847804" height="0.847804" fill="#4D6BFE"/>
<rect x="12.7171" y="14.814" width="0.847804" height="0.847804" fill="#4D6BFE"/>
<rect x="12.7171" y="15.6617" width="0.847804" height="0.847804" fill="#4D6BFE"/>
<rect x="11.8693" y="9.72717" width="0.847804" height="0.847804" fill="#4D6BFE"/>
<rect x="13.5649" y="8.87933" width="0.847804" height="0.847804" fill="#4D6BFE"/>
<rect x="13.5649" y="8.87933" width="0.847804" height="0.847804" fill="#4D6BFE"/>
<rect x="12.7171" y="8.87933" width="0.847804" height="0.847804" fill="#4D6BFE"/>
<rect x="12.7171" y="8.87933" width="0.847804" height="0.847804" fill="#4D6BFE"/>
<rect x="4.23902" y="5.48816" width="0.847804" height="0.847804" fill="#4D6BFE"/>
<rect x="9.32585" y="6.336" width="0.847804" height="0.847804" fill="#4D6BFE"/>
<rect x="8.47804" y="6.336" width="0.847804" height="0.847804" fill="#4D6BFE"/>
<rect x="7.63025" y="6.336" width="0.847804" height="0.847804" fill="#4D6BFE"/>
<rect x="6.78246" y="6.336" width="0.847804" height="0.847804" fill="#4D6BFE"/>
<rect x="5.93462" y="6.336" width="0.847804" height="0.847804" fill="#4D6BFE"/>
<rect x="5.08683" y="6.336" width="0.847804" height="0.847804" fill="#4D6BFE"/>
<rect x="10.1736" y="6.336" width="0.847804" height="0.847804" fill="#4D6BFE"/>
<rect x="4.23902" y="6.336" width="0.847804" height="0.847804" fill="#4D6BFE"/>
<rect x="9.32585" y="7.18372" width="0.847804" height="0.847804" fill="#4D6BFE"/>
<rect x="8.47804" y="7.18372" width="0.847804" height="0.847804" fill="#4D6BFE"/>
<rect x="7.63025" y="7.18372" width="0.847804" height="0.847804" fill="#4D6BFE"/>
<rect x="6.78246" y="7.18372" width="0.847804" height="0.847804" fill="#4D6BFE"/>
<rect x="5.93462" y="7.18372" width="0.847804" height="0.847804" fill="#4D6BFE"/>
<rect x="5.08683" y="7.18372" width="0.847804" height="0.847804" fill="#4D6BFE"/>
<rect x="10.1736" y="7.18372" width="0.847804" height="0.847804" fill="#4D6BFE"/>
<rect x="4.23902" y="7.18372" width="0.847804" height="0.847804" fill="#4D6BFE"/>
<rect x="9.32585" y="8.03156" width="0.847804" height="0.847804" fill="#4D6BFE"/>
<rect x="8.47804" y="8.03156" width="0.847804" height="0.847804" fill="#4D6BFE"/>
<rect x="7.63025" y="8.03156" width="0.847804" height="0.847804" fill="#4D6BFE"/>
<rect x="6.78246" y="8.03156" width="0.847804" height="0.847804" fill="#4D6BFE"/>
<rect x="5.93462" y="8.03156" width="0.847804" height="0.847804" fill="#4D6BFE"/>
<rect x="5.08683" y="8.03156" width="0.847804" height="0.847804" fill="#4D6BFE"/>
<rect x="10.1736" y="8.03156" width="0.847804" height="0.847804" fill="#4D6BFE"/>
<rect x="9.32585" y="8.87933" width="0.847804" height="0.847804" fill="#4D6BFE"/>
<rect x="8.47804" y="8.87933" width="0.847804" height="0.847804" fill="#4D6BFE"/>
<rect x="7.63025" y="8.87933" width="0.847804" height="0.847804" fill="#4D6BFE"/>
<rect x="6.78246" y="8.87933" width="0.847804" height="0.847804" fill="#4D6BFE"/>
<rect x="5.93462" y="8.87933" width="0.847804" height="0.847804" fill="#4D6BFE"/>
<rect x="10.1736" y="8.87933" width="0.847804" height="0.847804" fill="#4D6BFE"/>
<rect x="10.1736" y="9.72717" width="0.847804" height="0.847804" fill="#4D6BFE"/>
<rect x="9.32585" y="9.72717" width="0.847804" height="0.847804" fill="#4D6BFE"/>
<rect x="8.47804" y="9.72717" width="0.847804" height="0.847804" fill="#4D6BFE"/>
<rect x="7.63025" y="9.72717" width="0.847804" height="0.847804" fill="#4D6BFE"/>
<rect x="6.78246" y="9.72717" width="0.847804" height="0.847804" fill="#4D6BFE"/>
<rect x="4.23902" y="8.03156" width="0.847804" height="0.847804" fill="#4D6BFE"/>
<rect x="3.39123" y="5.48816" width="0.847804" height="0.847804" fill="#4D6BFE"/>
<rect x="3.39123" y="6.336" width="0.847804" height="0.847804" fill="#4D6BFE"/>
<rect x="2.54342" y="6.336" width="0.847804" height="0.847804" fill="#4D6BFE"/>
<rect x="2.54342" y="7.18372" width="0.847804" height="0.847804" fill="#4D6BFE"/>
<rect x="1.6956" y="7.18372" width="0.847804" height="0.847804" fill="#4D6BFE"/>
<rect x="1.6956" y="8.03156" width="0.847804" height="0.847804" fill="#4D6BFE"/>
<rect x="0.847809" y="8.03156" width="0.847804" height="0.847804" fill="#4D6BFE"/>
<rect x="0.847809" y="8.87933" width="0.847804" height="0.847804" fill="#4D6BFE"/>
<rect x="0.847809" y="9.72717" width="0.847804" height="0.847804" fill="#4D6BFE"/>
<rect x="1.6956" y="9.72717" width="0.847804" height="0.847804" fill="#4D6BFE"/>
<rect x="1.6956" y="8.87933" width="0.847804" height="0.847804" fill="#4D6BFE"/>
<rect x="2.54342" y="8.87933" width="0.847804" height="0.847804" fill="#4D6BFE"/>
<rect x="2.54342" y="8.03156" width="0.847804" height="0.847804" fill="#4D6BFE"/>
<rect x="3.39123" y="8.03156" width="0.847804" height="0.847804" fill="#4D6BFE"/>
<rect x="3.39123" y="7.18372" width="0.847804" height="0.847804" fill="#4D6BFE"/>
<rect x="3.39123" y="8.87933" width="0.847804" height="0.847804" fill="#4D6BFE"/>
<rect x="4.23902" y="8.87933" width="0.847804" height="0.847804" fill="#4D6BFE"/>
<rect x="5.08683" y="8.87933" width="0.847804" height="0.847804" fill="#4D6BFE"/>
<rect x="5.08683" y="9.72717" width="0.847804" height="0.847804" fill="#4D6BFE"/>
<rect x="5.93462" y="9.72717" width="0.847804" height="0.847804" fill="#4D6BFE"/>
<rect x="5.93462" y="10.5749" width="0.847804" height="0.847804" fill="#4D6BFE"/>
<rect x="6.78246" y="10.5749" width="0.847804" height="0.847804" fill="#4D6BFE"/>
<rect x="7.63025" y="11.4227" width="0.847804" height="0.847804" fill="#4D6BFE"/>
<rect x="7.63025" y="11.4227" width="0.847804" height="0.847804" fill="#4D6BFE"/>
<rect x="8.47804" y="11.4227" width="0.847804" height="0.847804" fill="#4D6BFE"/>
<rect x="8.47804" y="12.2706" width="0.847804" height="0.847804" fill="#4D6BFE"/>
<rect x="9.32585" y="12.2706" width="0.847804" height="0.847804" fill="#4D6BFE"/>
<rect x="9.32585" y="13.1184" width="0.847804" height="0.847804" fill="#4D6BFE"/>
<rect x="10.1736" y="13.1184" width="0.847804" height="0.847804" fill="#4D6BFE"/>
<rect x="10.1736" y="13.9662" width="0.847804" height="0.847804" fill="#4D6BFE"/>
<rect x="11.0215" y="13.9662" width="0.847804" height="0.847804" fill="#4D6BFE"/>
<rect x="11.0215" y="14.814" width="0.847804" height="0.847804" fill="#4D6BFE"/>
<rect x="11.0215" y="15.6617" width="0.847804" height="0.847804" fill="#4D6BFE"/>
<rect x="11.8693" y="15.6617" width="0.847804" height="0.847804" fill="#4D6BFE"/>
<rect x="11.8693" y="16.5096" width="0.847804" height="0.847804" fill="#4D6BFE"/>
<rect x="12.7171" y="16.5096" width="0.847804" height="0.847804" fill="#4D6BFE"/>
<rect x="12.7171" y="17.3574" width="0.847804" height="0.847804" fill="#4D6BFE"/>
<rect x="13.5649" y="17.3574" width="0.847804" height="0.847804" fill="#4D6BFE"/>
<rect x="7.63025" y="10.5749" width="0.847804" height="0.847804" fill="#4D6BFE"/>
<rect x="7.63025" y="10.5749" width="0.847804" height="0.847804" fill="#4D6BFE"/>
<rect y="9.72717" width="0.847804" height="0.847804" fill="#4D6BFE"/>
<rect y="10.5749" width="0.847804" height="0.847804" fill="#4D6BFE"/>
<rect y="11.4227" width="0.847804" height="0.847804" fill="#4D6BFE"/>
<rect y="12.2706" width="0.847804" height="0.847804" fill="#4D6BFE"/>
<rect y="13.1184" width="0.847804" height="0.847804" fill="#4D6BFE"/>
<rect x="0.847809" y="13.1184" width="0.847804" height="0.847804" fill="#4D6BFE"/>
<rect x="0.847809" y="13.9662" width="0.847804" height="0.847804" fill="#4D6BFE"/>
<rect y="13.9662" width="0.847804" height="0.847804" fill="#4D6BFE"/>
<rect y="14.814" width="0.847804" height="0.847804" fill="#4D6BFE"/>
<rect x="0.847809" y="14.814" width="0.847804" height="0.847804" fill="#4D6BFE"/>
<rect x="1.6956" y="14.814" width="0.847804" height="0.847804" fill="#4D6BFE"/>
<rect x="1.6956" y="13.9662" width="0.847804" height="0.847804" fill="#4D6BFE"/>
<rect x="1.6956" y="13.1184" width="0.847804" height="0.847804" fill="#4D6BFE"/>
<rect x="2.54342" y="14.814" width="0.847804" height="0.847804" fill="#4D6BFE"/>
<rect x="2.54342" y="15.6617" width="0.847804" height="0.847804" fill="#4D6BFE"/>
<rect x="1.6956" y="15.6617" width="0.847804" height="0.847804" fill="#4D6BFE"/>
<rect x="0.847809" y="15.6617" width="0.847804" height="0.847804" fill="#4D6BFE"/>
<rect x="0.847809" y="16.5096" width="0.847804" height="0.847804" fill="#4D6BFE"/>
<rect x="1.6956" y="16.5096" width="0.847804" height="0.847804" fill="#4D6BFE"/>
<rect x="2.54342" y="16.5096" width="0.847804" height="0.847804" fill="#4D6BFE"/>
<rect x="2.54342" y="17.3574" width="0.847804" height="0.847804" fill="#4D6BFE"/>
<rect x="1.6956" y="17.3574" width="0.847804" height="0.847804" fill="#4D6BFE"/>
<rect x="1.6956" y="18.2051" width="0.847804" height="0.847804" fill="#4D6BFE"/>
<rect x="2.54342" y="18.2051" width="0.847804" height="0.847804" fill="#4D6BFE"/>
<rect x="3.39123" y="18.2051" width="0.847804" height="0.847804" fill="#4D6BFE"/>
<rect x="3.39123" y="17.3574" width="0.847804" height="0.847804" fill="#4D6BFE"/>
<rect x="3.39123" y="16.5096" width="0.847804" height="0.847804" fill="#4D6BFE"/>
<rect x="4.23902" y="17.3574" width="0.847804" height="0.847804" fill="#4D6BFE"/>
<rect x="4.23902" y="18.2051" width="0.847804" height="0.847804" fill="#4D6BFE"/>
<rect x="4.23902" y="19.053" width="0.847804" height="0.847804" fill="#4D6BFE"/>
<rect x="3.39123" y="19.053" width="0.847804" height="0.847804" fill="#4D6BFE"/>
<rect x="2.54342" y="19.053" width="0.847804" height="0.847804" fill="#4D6BFE"/>
<rect x="3.39123" y="19.9008" width="0.847804" height="0.847804" fill="#4D6BFE"/>
<rect x="4.23902" y="19.9008" width="0.847804" height="0.847804" fill="#4D6BFE"/>
<rect x="5.08683" y="19.9008" width="0.847804" height="0.847804" fill="#4D6BFE"/>
<rect x="5.08683" y="20.7487" width="0.847804" height="0.847804" fill="#4D6BFE"/>
<rect x="5.93462" y="20.7487" width="0.847804" height="0.847804" fill="#4D6BFE"/>
<rect x="5.93462" y="19.9008" width="0.847804" height="0.847804" fill="#4D6BFE"/>
<rect x="5.93462" y="19.053" width="0.847804" height="0.847804" fill="#4D6BFE"/>
<rect x="5.08683" y="18.2051" width="0.847804" height="0.847804" fill="#4D6BFE"/>
<rect x="5.93462" y="18.2051" width="0.847804" height="0.847804" fill="#4D6BFE"/>
<rect x="6.78246" y="18.2051" width="0.847804" height="0.847804" fill="#4D6BFE"/>
<rect x="6.78246" y="17.3574" width="0.847804" height="0.847804" fill="#4D6BFE"/>
<rect x="6.78246" y="16.5096" width="0.847804" height="0.847804" fill="#4D6BFE"/>
<rect x="7.63025" y="17.3574" width="0.847804" height="0.847804" fill="#4D6BFE"/>
<rect x="7.63025" y="18.2051" width="0.847804" height="0.847804" fill="#4D6BFE"/>
<rect x="8.47804" y="18.2051" width="0.847804" height="0.847804" fill="#4D6BFE"/>
<rect x="7.63025" y="16.5096" width="0.847804" height="0.847804" fill="#4D6BFE"/>
<rect x="8.47804" y="17.3574" width="0.847804" height="0.847804" fill="#4D6BFE"/>
<rect x="9.32585" y="18.2051" width="0.847804" height="0.847804" fill="#4D6BFE"/>
<rect x="10.1736" y="19.053" width="0.847804" height="0.847804" fill="#4D6BFE"/>
<rect x="9.32585" y="19.053" width="0.847804" height="0.847804" fill="#4D6BFE"/>
<rect x="8.47804" y="19.053" width="0.847804" height="0.847804" fill="#4D6BFE"/>
<rect x="7.63025" y="19.053" width="0.847804" height="0.847804" fill="#4D6BFE"/>
<rect x="6.78246" y="19.053" width="0.847804" height="0.847804" fill="#4D6BFE"/>
<rect x="6.78246" y="20.7487" width="0.847804" height="0.847804" fill="#4D6BFE"/>
<rect x="7.63025" y="20.7487" width="0.847804" height="0.847804" fill="#4D6BFE"/>
<rect x="8.47804" y="20.7487" width="0.847804" height="0.847804" fill="#4D6BFE"/>
<rect x="9.32585" y="20.7487" width="0.847804" height="0.847804" fill="#4D6BFE"/>
<rect x="10.1736" y="20.7487" width="0.847804" height="0.847804" fill="#4D6BFE"/>
<rect x="11.0215" y="20.7487" width="0.847804" height="0.847804" fill="#4D6BFE"/>
<rect x="13.5649" y="20.7487" width="0.847804" height="0.847804" fill="#4D6BFE"/>
<rect x="11.0215" y="19.9008" width="0.847804" height="0.847804" fill="#4D6BFE"/>
<rect x="11.0215" y="19.053" width="0.847804" height="0.847804" fill="#4D6BFE"/>
<rect x="11.8693" y="19.9008" width="0.847804" height="0.847804" fill="#4D6BFE"/>
<rect x="12.7171" y="19.9008" width="0.847804" height="0.847804" fill="#4D6BFE"/>
<rect x="14.4127" y="19.9008" width="0.847804" height="0.847804" fill="#4D6BFE"/>
<rect x="15.2604" y="19.9008" width="0.847804" height="0.847804" fill="#4D6BFE"/>
<rect x="16.1083" y="19.9008" width="0.847804" height="0.847804" fill="#4D6BFE"/>
<rect x="12.7171" y="19.053" width="0.847804" height="0.847804" fill="#4D6BFE"/>
<rect x="13.5649" y="19.053" width="0.847804" height="0.847804" fill="#4D6BFE"/>
<rect x="14.4127" y="19.053" width="0.847804" height="0.847804" fill="#4D6BFE"/>
<rect x="13.5649" y="18.2051" width="0.847804" height="0.847804" fill="#4D6BFE"/>
<rect x="15.2605" y="18.2051" width="0.847804" height="0.847804" fill="#4D6BFE"/>
<rect x="16.9561" y="18.2051" width="0.847804" height="0.847804" fill="#4D6BFE"/>
<rect x="18.6517" y="18.2051" width="0.847804" height="0.847804" fill="#4D6BFE"/>
<rect x="17.8038" y="19.9008" width="0.847804" height="0.847804" fill="#4D6BFE"/>
<rect x="19.4992" y="18.2051" width="0.847804" height="0.847804" fill="#4D6BFE"/>
<rect x="19.4992" y="19.9008" width="0.847804" height="0.847804" fill="#4D6BFE"/>
<rect x="20.347" y="20.7487" width="0.847804" height="0.847804" fill="#4D6BFE"/>
<rect x="19.4992" y="20.7487" width="0.847804" height="0.847804" fill="#4D6BFE"/>
<rect x="18.6517" y="20.7487" width="0.847804" height="0.847804" fill="#4D6BFE"/>
<rect x="20.347" y="18.2051" width="0.847804" height="0.847804" fill="#4D6BFE"/>
<rect x="21.1948" y="18.2051" width="0.847804" height="0.847804" fill="#4D6BFE"/>
<rect x="22.8904" y="18.2051" width="0.847804" height="0.847804" fill="#4D6BFE"/>
<rect x="23.7382" y="18.2051" width="0.847804" height="0.847804" fill="#4D6BFE"/>
<rect x="24.586" y="18.2051" width="0.847804" height="0.847804" fill="#4D6BFE"/>
<rect x="16.1083" y="17.3574" width="0.847804" height="0.847804" fill="#4D6BFE"/>
<rect x="15.2605" y="17.3574" width="0.847804" height="0.847804" fill="#4D6BFE"/>
<rect x="14.4127" y="17.3574" width="0.847804" height="0.847804" fill="#4D6BFE"/>
<rect x="15.2605" y="16.5096" width="0.847804" height="0.847804" fill="#4D6BFE"/>
<rect x="16.9562" y="16.5096" width="0.847804" height="0.847804" fill="#4D6BFE"/>
<rect x="17.804" y="16.5096" width="0.847804" height="0.847804" fill="#4D6BFE"/>
<rect x="22.0426" y="16.5096" width="4.29512" height="0.847804" fill="#4D6BFE"/>
<rect x="16.1083" y="15.6617" width="0.847804" height="0.847804" fill="#4D6BFE"/>
<rect x="17.8039" y="14.814" width="0.847804" height="0.847804" fill="#4D6BFE"/>
<rect x="16.9561" y="13.9662" width="0.847804" height="0.847804" fill="#4D6BFE"/>
<rect x="18.6517" y="13.1184" width="0.847804" height="0.847804" fill="#4D6BFE"/>
<rect x="22.0426" y="13.1184" width="0.847804" height="0.847804" fill="#4D6BFE"/>
<rect x="22.8909" y="13.1184" width="0.847804" height="0.847804" fill="#4D6BFE"/>
<rect x="21.1952" y="13.1184" width="0.847804" height="0.847804" fill="#4D6BFE"/>
<rect x="17.8039" y="12.2706" width="0.847804" height="0.847804" fill="#4D6BFE"/>
<rect x="17.8039" y="11.4227" width="0.847804" height="0.847804" fill="#4D6BFE"/>
<rect x="17.8039" y="9.72717" width="0.847804" height="0.847804" fill="#4D6BFE"/>
<rect x="16.9561" y="9.72717" width="0.847804" height="0.847804" fill="#4D6BFE"/>
<rect x="16.9561" y="8.87933" width="0.847804" height="0.847804" fill="#4D6BFE"/>
<rect x="17.8039" y="8.03156" width="0.847804" height="0.847804" fill="#4D6BFE"/>
<rect x="20.3473" y="7.18372" width="0.847804" height="0.847804" fill="#4D6BFE"/>
<rect x="21.1948" y="7.18372" width="0.847804" height="0.847804" fill="#4D6BFE"/>
<rect x="19.4995" y="6.336" width="0.847804" height="0.847804" fill="#4D6BFE"/>
<rect x="19.4995" y="5.48816" width="0.847804" height="0.847804" fill="#4D6BFE"/>
<rect x="18.6517" y="5.48816" width="0.847804" height="0.847804" fill="#4D6BFE"/>
<rect x="18.6517" y="6.336" width="0.847804" height="0.847804" fill="#4D6BFE"/>
<rect x="17.8039" y="6.336" width="0.847804" height="0.847804" fill="#4D6BFE"/>
<rect x="17.8039" y="7.18372" width="0.847804" height="0.847804" fill="#4D6BFE"/>
<rect x="16.9561" y="7.18372" width="0.847804" height="0.847804" fill="#4D6BFE"/>
<rect x="16.9561" y="8.03156" width="0.847804" height="0.847804" fill="#4D6BFE"/>
<rect x="16.1083" y="7.18372" width="0.847804" height="0.847804" fill="#4D6BFE"/>
<rect x="16.1083" y="6.336" width="0.847804" height="0.847804" fill="#4D6BFE"/>
<rect x="16.9561" y="6.336" width="0.847804" height="0.847804" fill="#4D6BFE"/>
<rect x="16.1083" y="5.48816" width="0.847804" height="0.847804" fill="#4D6BFE"/>
<rect x="15.2605" y="4.64032" width="0.847804" height="0.847804" fill="#4D6BFE"/>
<rect x="14.4127" y="3.79248" width="0.847804" height="0.847804" fill="#4D6BFE"/>
<rect x="14.4127" y="4.64032" width="0.847804" height="0.847804" fill="#4D6BFE"/>
<rect x="15.2605" y="5.48816" width="0.847804" height="0.847804" fill="#4D6BFE"/>
<rect x="14.4127" y="5.48816" width="0.847804" height="0.847804" fill="#4D6BFE"/>
<rect x="15.2605" y="6.336" width="0.847804" height="0.847804" fill="#4D6BFE"/>
<rect x="15.2605" y="7.18372" width="0.847804" height="0.847804" fill="#4D6BFE"/>
<rect x="14.4127" y="6.336" width="0.847804" height="0.847804" fill="#4D6BFE"/>
<rect x="16.1083" y="8.03156" width="0.847804" height="0.847804" fill="#4D6BFE"/>
<rect x="18.6517" y="8.03156" width="0.847804" height="0.847804" fill="#4D6BFE"/>
<rect x="18.6517" y="8.87933" width="0.847804" height="0.847804" fill="#4D6BFE"/>
<rect x="19.4995" y="8.87933" width="0.847804" height="0.847804" fill="#4D6BFE"/>
<rect x="23.7387" y="8.87933" width="0.847804" height="0.847804" fill="#4D6BFE"/>
<rect x="22.8909" y="8.87933" width="0.847804" height="0.847804" fill="#4D6BFE"/>
<rect x="24.5866" y="8.87933" width="0.847804" height="0.847804" fill="#4D6BFE"/>
<rect x="22.8908" y="7.18372" width="0.847804" height="0.847804" fill="#4D6BFE"/>
<rect x="24.5864" y="7.18372" width="0.847804" height="0.847804" fill="#4D6BFE"/>
<rect x="20.3473" y="6.336" width="0.847804" height="0.847804" fill="#4D6BFE"/>
<rect x="20.3473" y="4.64032" width="0.847804" height="0.847804" fill="#4D6BFE"/>
<rect x="21.1951" y="4.64032" width="0.847804" height="0.847804" fill="#4D6BFE"/>
<rect x="22.043" y="4.64032" width="0.847804" height="0.847804" fill="#4D6BFE"/>
<rect x="23.7913" y="4.64032" width="0.847804" height="0.847804" fill="#4D6BFE"/>
<rect x="16.1083" y="9.72717" width="0.847804" height="0.847804" fill="#4D6BFE"/>
<rect x="16.1083" y="10.5749" width="0.847804" height="0.847804" fill="#4D6BFE"/>
<rect x="16.9561" y="10.5749" width="0.847804" height="0.847804" fill="#4D6BFE"/>
<rect x="19.4995" y="11.4227" width="0.847804" height="0.847804" fill="#4D6BFE"/>
<rect x="20.347" y="11.4227" width="0.847804" height="0.847804" fill="#4D6BFE"/>
<rect x="24.5411" y="11.4227" width="0.847804" height="0.847804" fill="#4D6BFE"/>
<rect x="22.8455" y="11.4227" width="0.847804" height="0.847804" fill="#4D6BFE"/>
<rect x="16.1083" y="11.4227" width="0.847804" height="0.847804" fill="#4D6BFE"/>
<rect x="16.1083" y="12.2706" width="0.847804" height="0.847804" fill="#4D6BFE"/>
<rect x="15.2605" y="12.2706" width="0.847804" height="0.847804" fill="#4D6BFE"/>
<rect x="15.2605" y="13.1184" width="0.847804" height="0.847804" fill="#4D6BFE"/>
<rect x="16.1083" y="13.1184" width="0.847804" height="0.847804" fill="#4D6BFE"/>
<rect x="16.9561" y="12.2706" width="0.847804" height="0.847804" fill="#4D6BFE"/>
<rect x="16.1083" y="13.9662" width="0.847804" height="0.847804" fill="#4D6BFE"/>
<rect x="15.2605" y="13.9662" width="0.847804" height="0.847804" fill="#4D6BFE"/>
<rect x="14.4127" y="13.9662" width="0.847804" height="0.847804" fill="#4D6BFE"/>
<rect x="14.4127" y="14.814" width="0.847804" height="0.847804" fill="#4D6BFE"/>
<rect x="15.2605" y="14.814" width="0.847804" height="0.847804" fill="#4D6BFE"/>
<rect x="14.4127" y="15.6617" width="0.847804" height="0.847804" fill="#4D6BFE"/>
<rect x="14.4127" y="16.5096" width="0.847804" height="0.847804" fill="#4D6BFE"/>
<rect x="16.1084" y="16.5096" width="0.847804" height="0.847804" fill="#4D6BFE"/>
<rect x="13.5649" y="14.814" width="0.847804" height="0.847804" fill="#4D6BFE"/>
<rect x="13.5649" y="16.5096" width="0.847804" height="0.847804" fill="#4D6BFE"/>
<rect x="13.5649" y="15.6617" width="0.847804" height="0.847804" fill="#4D6BFE"/>
<rect x="13.5649" y="14.814" width="0.847804" height="0.847804" fill="#4D6BFE"/>
<rect x="13.5649" y="16.5096" width="0.847804" height="0.847804" fill="#4D6BFE"/>
<rect x="13.5649" y="15.6617" width="0.847804" height="0.847804" fill="#4D6BFE"/>
<rect x="11.8693" y="19.053" width="0.847804" height="0.847804" fill="#4D6BFE"/>
<rect x="6.78246" y="19.9008" width="0.847804" height="0.847804" fill="#4D6BFE"/>
<rect x="7.63025" y="19.9008" width="0.847804" height="0.847804" fill="#4D6BFE"/>
<rect x="8.47804" y="19.9008" width="0.847804" height="0.847804" fill="#4D6BFE"/>
<rect x="9.32585" y="19.9008" width="0.847804" height="0.847804" fill="#4D6BFE"/>
<rect x="10.1736" y="19.9008" width="0.847804" height="0.847804" fill="#4D6BFE"/>
<rect x="5.08683" y="19.053" width="0.847804" height="0.847804" fill="#4D6BFE"/>
<rect x="0.847809" y="12.2706" width="0.847804" height="0.847804" fill="#4D6BFE"/>
<rect x="0.847809" y="11.4227" width="0.847804" height="0.847804" fill="#4D6BFE"/>
<rect x="0.847809" y="10.5749" width="0.847804" height="0.847804" fill="#4D6BFE"/>
</g>
<defs>
<clipPath id="clip0_40_2">
<rect width="25.3889" height="25.3889" fill="white"/>
</clipPath>
</defs>
</svg>
